<?xml version="1.0" standalone="no"?>
<!DOCTYPE svg PUBLIC "-//W3C//DTD SVG 20010904//EN"
 "http://www.w3.org/TR/2001/REC-SVG-20010904/DTD/svg10.dtd">
<svg version="1.0" xmlns="http://www.w3.org/2000/svg"
 width="762.000000pt" height="1280.000000pt" viewBox="0 0 762.000000 1280.000000"
 preserveAspectRatio="xMidYMid meet">
<metadata>
Created by potrace 1.15, written by Peter Selinger 2001-2017
</metadata>
<g transform="translate(0.000000,1280.000000) scale(0.100000,-0.100000)"
fill="#000000" stroke="none">
<path d="M4435 12784 c-38 -8 -108 -33 -153 -54 -46 -22 -94 -40 -105 -40 -12
0 -44 -11 -72 -25 -27 -13 -62 -25 -76 -25 -53 0 -90 -13 -117 -41 -15 -15
-40 -33 -57 -39 -21 -8 -187 -11 -570 -9 -297 1 -553 -2 -570 -6 -89 -23 -173
-91 -228 -186 -14 -24 -48 -111 -76 -193 -69 -203 -102 -264 -190 -360 -96
-104 -134 -163 -175 -268 -59 -149 -71 -210 -71 -353 0 -125 1 -134 36 -230
118 -322 119 -325 119 -387 0 -51 -6 -72 -34 -122 -46 -83 -63 -143 -76 -261
-16 -150 1 -251 57 -323 18 -24 53 -47 112 -75 110 -51 138 -77 147 -136 15
-102 79 -183 166 -212 26 -8 94 -14 168 -15 145 -2 142 1 115 -103 -16 -61
-16 -69 -1 -105 9 -22 14 -42 11 -45 -3 -3 -31 -4 -61 -3 -30 1 -63 -2 -74 -8
-73 -39 -76 -233 -5 -450 19 -60 35 -117 35 -125 0 -36 45 -144 84 -205 60
-91 106 -193 106 -233 0 -36 64 -176 144 -315 27 -46 46 -92 46 -109 0 -16 5
-55 11 -87 10 -45 9 -69 -2 -114 -7 -31 -13 -64 -12 -72 1 -8 3 -55 4 -105 l2
-89 -74 -16 c-41 -9 -79 -19 -85 -22 -17 -11 -209 -48 -248 -48 -43 0 -114
-14 -226 -46 -82 -23 -106 -39 -136 -90 -9 -15 -29 -19 -125 -25 -63 -4 -130
-12 -150 -18 -20 -6 -123 -24 -230 -41 -107 -16 -224 -38 -260 -49 -38 -12
-124 -56 -200 -103 -74 -44 -170 -100 -214 -124 -44 -23 -90 -53 -102 -66 -23
-25 -73 -178 -73 -225 0 -15 -9 -46 -20 -69 -16 -33 -18 -47 -10 -68 15 -41
12 -75 -9 -110 -11 -17 -46 -112 -79 -211 -101 -301 -117 -334 -239 -505 -138
-194 -136 -190 -119 -226 8 -16 17 -47 21 -69 6 -43 12 -33 -154 -277 -99
-145 -108 -204 -121 -728 -12 -485 -14 -503 -119 -720 -90 -186 -107 -250 -98
-368 15 -191 136 -412 301 -553 209 -177 415 -279 651 -320 49 -8 65 -15 65
-28 0 -96 -58 -554 -91 -726 -43 -216 -72 -312 -179 -590 -34 -88 -84 -225
-111 -305 -49 -148 -96 -356 -86 -382 4 -11 30 -17 94 -22 48 -3 132 -11 185
-16 175 -17 639 -50 954 -67 389 -21 1523 -24 1864 -5 1116 63 1886 166 2627
354 68 17 93 27 93 39 0 8 -13 85 -30 170 -46 241 -127 746 -150 939 -20 164
-53 600 -46 607 2 2 41 -11 87 -28 158 -58 179 -63 289 -63 220 0 430 100 526
251 35 53 54 107 249 678 62 182 142 407 179 500 151 385 167 536 121 1135
-25 320 -57 494 -130 697 -75 207 -152 343 -382 672 -217 309 -320 422 -469
512 -38 23 -86 55 -107 71 l-38 30 21 32 c117 176 165 377 126 524 -45 168
-220 305 -452 353 -115 24 -287 22 -389 -5 -103 -28 -220 -91 -287 -157 l-60
-59 -263 160 -262 161 -7 46 c-3 25 -6 85 -6 132 0 72 5 101 34 181 18 52 46
140 61 195 16 55 30 102 31 104 2 2 14 -9 27 -25 l24 -28 32 29 c17 17 31 40
31 52 0 44 48 160 98 236 59 90 77 140 92 257 6 47 22 129 36 182 39 155 30
226 -35 281 -43 36 -81 35 -124 -3 -19 -16 -36 -30 -38 -30 -2 0 -4 57 -5 127
0 71 -4 212 -9 315 -9 217 -8 224 82 473 65 177 145 348 276 587 149 272 197
373 243 515 72 217 107 469 84 606 -33 207 -182 483 -344 641 -126 122 -216
163 -426 191 -102 13 -128 21 -230 70 -63 30 -135 59 -160 64 -62 14 -152 12
-235 -5z m134 -151 c82 -276 105 -437 106 -723 0 -216 -4 -266 -44 -605 -24
-203 -45 -372 -47 -373 -4 -5 -234 25 -240 31 -3 2 24 52 60 110 100 165 126
266 126 481 0 130 -5 176 -20 176 -4 0 -10 -42 -14 -92 -19 -249 -53 -368
-157 -534 -38 -61 -69 -116 -69 -122 0 -9 -40 -12 -145 -12 -84 0 -145 4 -145
9 0 6 18 61 41 123 62 173 76 231 89 386 10 128 8 211 -6 280 -10 50 -21 16
-28 -85 -10 -164 -48 -364 -91 -477 -20 -55 -44 -130 -53 -167 l-16 -67 -105
-4 c-58 -2 -109 -3 -112 -1 -10 4 17 141 41 213 12 36 49 121 80 190 78 167
98 219 122 320 51 206 11 523 -77 616 -20 20 -38 35 -40 32 -3 -3 6 -25 19
-49 42 -76 61 -193 60 -384 0 -157 -2 -177 -28 -260 -15 -49 -57 -157 -93
-240 -66 -153 -106 -284 -118 -387 -6 -55 -8 -58 -38 -62 -18 -3 -62 -10 -98
-16 -36 -5 -70 -10 -76 -10 -6 0 -13 42 -16 98 -11 170 -59 304 -156 432 -70
93 -76 117 -66 273 6 102 5 123 -19 219 -14 58 -26 115 -26 126 0 12 -5 24
-11 28 -12 7 -9 -94 7 -225 4 -30 1 -105 -6 -166 -15 -130 -6 -186 40 -250 78
-109 101 -148 128 -216 34 -85 61 -200 64 -278 l3 -53 -84 -25 c-54 -16 -86
-21 -90 -14 -4 6 -12 65 -19 132 -19 175 -84 409 -114 409 -6 0 -7 -8 -3 -17
26 -67 54 -286 55 -429 0 -128 -5 -141 -64 -171 -28 -14 -70 -39 -93 -54 -23
-16 -46 -29 -51 -29 -6 0 -25 24 -43 53 -19 28 -75 95 -126 148 -103 108 -100
99 -107 279 -4 114 -15 162 -45 209 -22 34 -25 10 -6 -45 13 -38 15 -80 13
-194 -3 -173 -5 -169 114 -298 46 -48 99 -116 119 -150 l36 -62 -18 -52 c-35
-102 -18 -164 51 -192 22 -9 52 -16 65 -16 24 0 22 -5 -35 -76 -89 -112 -160
-261 -160 -336 0 -16 -5 -28 -11 -28 -26 0 -152 75 -228 137 -150 119 -279
259 -258 279 2 2 25 -5 50 -16 99 -44 195 -108 268 -177 78 -74 143 -113 161
-95 7 7 0 16 -20 26 -17 9 -51 42 -76 75 -92 119 -198 188 -328 213 l-66 12
-6 51 c-3 28 -11 66 -17 83 -12 36 -35 45 -24 10 4 -13 10 -64 14 -113 9 -116
30 -158 132 -271 122 -133 234 -229 322 -275 43 -22 80 -46 82 -52 2 -7 6 -44
9 -84 l5 -72 -35 21 c-52 30 -141 21 -224 -23 -63 -34 -120 -91 -120 -121 0
-32 -17 -27 -33 10 -9 20 -23 63 -32 94 -18 66 -23 71 -159 138 -133 66 -160
117 -159 295 2 138 22 225 78 331 67 126 66 135 -73 519 -34 95 -36 106 -36
225 0 107 4 138 28 215 49 161 103 258 208 371 52 56 107 127 124 158 27 51
44 70 44 47 0 -30 533 -782 545 -769 2 2 -21 174 -51 383 -75 523 -122 895
-113 901 4 2 153 0 331 -6 178 -5 420 -11 538 -12 229 -2 238 -1 291 49 20 19
44 27 98 34 39 4 81 15 93 22 13 8 37 17 55 20 17 4 65 22 106 42 68 33 171
62 224 64 19 1 25 -9 42 -66z m-349 -1924 c116 -13 208 -33 277 -60 l53 -21
-6 -42 c-23 -156 -47 -271 -68 -331 -36 -102 -133 -355 -138 -360 -2 -2 -74 9
-159 26 -182 36 -359 47 -451 30 -92 -18 -192 -61 -357 -153 -307 -170 -317
-178 -389 -310 -20 -38 -40 -68 -44 -68 -16 0 -66 102 -88 180 -32 115 -40
317 -16 410 60 233 303 485 596 617 214 96 442 120 790 82z m-1320 -1633 c-12
-34 -34 -29 -38 7 -3 21 2 29 20 36 28 10 34 -3 18 -43z"/>
<path d="M2216 11093 c20 -82 122 -220 298 -403 78 -81 114 -128 156 -205 57
-103 134 -195 163 -195 24 0 22 6 -22 45 -25 23 -61 79 -106 166 -58 114 -80
145 -159 228 -125 132 -277 313 -298 356 -22 42 -41 47 -32 8z"/>
<path d="M2071 10211 c-12 -8 -12 -14 -1 -41 13 -32 161 -171 265 -248 114
-84 299 -162 386 -162 55 0 49 16 -8 23 -60 7 -152 45 -245 100 -77 45 -309
260 -334 309 -15 28 -37 35 -63 19z"/>
</g>
</svg>
